<?xml version="1.0" encoding="utf-8"?>
<svg xmlns="http://www.w3.org/2000/svg" width="2820" height="1620" viewBox="0 0 2820 1620">
  <defs>
    <style>
      .font-main { font-family: Arial, "Helvetica Neue", Helvetica, sans-serif; }
      .crit-line { stroke: #D32F2F; stroke-width: 3.8; fill: none; }
      .noncrit-line { stroke: #000000; stroke-width: 2.4; stroke-dasharray: 9,5; fill: none; }
    </style>
    <marker id="arrow-crit" viewBox="0 0 10 10" refX="9" refY="5" markerWidth="9" markerHeight="9" orient="auto">
      <path d="M 0 1.5 L 10 5 L 0 8.5 z" fill="#D32F2F" />
    </marker>
    <marker id="arrow-noncrit" viewBox="0 0 10 10" refX="9" refY="5" markerWidth="9" markerHeight="9" orient="auto">
      <path d="M 0 1.5 L 10 5 L 0 8.5 z" fill="#000000" />
    </marker>
  </defs>

  <!-- Clean Canvas -->
  <rect width="2820" height="1620" fill="#FFFFFF" />

  <!-- Header -->
  <text x="70" y="70" class="font-main" font-size="52" font-weight="900" fill="#000000">CPM</text>
  <text x="215" y="56" class="font-main" font-size="24" font-weight="900" fill="#000000">CRITICAL PATH METHOD (CPM) NETWORK DIAGRAM</text>
  <text x="215" y="84" class="font-main" font-size="16" font-weight="700" fill="#000000">Early Start (ES), Late Start (LS), Duration (D), Early Finish (EF), Late Finish (LF), and Total Slack [Float] Analysis | Total: 159 Calendar Days</text>

  <!-- Connectors -->
  <line x1="230" y1="250" x2="355" y2="250" class="crit-line" marker-end="url(#arrow-crit)" />
  <line x1="625" y1="250" x2="685" y2="250" class="crit-line" marker-end="url(#arrow-crit)" />
  <line x1="955" y1="250" x2="1015" y2="250" class="crit-line" marker-end="url(#arrow-crit)" />
  <line x1="1285" y1="250" x2="1345" y2="250" class="crit-line" marker-end="url(#arrow-crit)" />
  <path d="M 1615 250 L 1650 250 L 1650 150 L 1685 150" class="noncrit-line" marker-end="url(#arrow-noncrit)" />
  <path d="M 1615 250 L 1650 250 L 1650 355 L 1685 355" class="crit-line" marker-end="url(#arrow-crit)" />
  <line x1="1955" y1="355" x2="2035" y2="355" class="crit-line" marker-end="url(#arrow-crit)" />
  <line x1="2305" y1="355" x2="2385" y2="355" class="crit-line" marker-end="url(#arrow-crit)" />
  <path d="M 2655 355 L 2710 355 L 2710 670 L 2655 670" class="crit-line" marker-end="url(#arrow-crit)" />
  <path d="M 1955 150 L 2710 150 L 2710 355" class="noncrit-line" />
  <path d="M 2385 670 L 2345 670 L 2345 555 L 2305 555" class="noncrit-line" marker-end="url(#arrow-noncrit)" />
  <path d="M 2385 670 L 2345 670 L 2345 785 L 2305 785" class="crit-line" marker-end="url(#arrow-crit)" />
  <path d="M 2035 555 L 1995 555 L 1995 670 L 1955 670" class="noncrit-line" marker-end="url(#arrow-noncrit)" />
  <path d="M 2035 785 L 1995 785 L 1995 670 L 1955 670" class="crit-line" marker-end="url(#arrow-crit)" />
  <path d="M 1685 670 L 1650 670 L 1650 555 L 1615 555" class="crit-line" marker-end="url(#arrow-crit)" />
  <path d="M 1685 670 L 1650 670 L 1650 785 L 1615 785" class="crit-line" marker-end="url(#arrow-crit)" />
  <path d="M 2035 555 L 2010 555 L 2010 430 L 1235 430 L 1235 607" class="noncrit-line" marker-end="url(#arrow-noncrit)" />
  <path d="M 2035 785 L 2010 785 L 2010 555" class="noncrit-line" />
  <path d="M 1345 555 L 1315 555 L 1315 505 L 630 505 L 630 1090 L 685 1090" class="crit-line" marker-end="url(#arrow-crit)" />
  <path d="M 1345 785 L 1315 785 L 1315 835 L 630 835" class="crit-line" />
  <path d="M 1015 670 L 630 670" class="noncrit-line" />
  <path d="M 955 1090 L 985 1090 L 985 975 L 1015 975" class="crit-line" marker-end="url(#arrow-crit)" />
  <path d="M 955 1090 L 985 1090 L 985 1205 L 1015 1205" class="noncrit-line" marker-end="url(#arrow-noncrit)" />
  <path d="M 1285 975 L 1315 975 L 1315 1090 L 1345 1090" class="crit-line" marker-end="url(#arrow-crit)" />
  <path d="M 1285 1205 L 1315 1205 L 1315 1090 L 1345 1090" class="noncrit-line" marker-end="url(#arrow-noncrit)" />
  <path d="M 1615 1090 L 1650 1090 L 1650 975 L 1685 975" class="crit-line" marker-end="url(#arrow-crit)" />
  <path d="M 1615 1090 L 1650 1090 L 1650 1205 L 1685 1205" class="crit-line" marker-end="url(#arrow-crit)" />
  <path d="M 1955 975 L 2020 975 L 2020 1420 L 1955 1420" class="crit-line" marker-end="url(#arrow-crit)" />
  <path d="M 1955 1205 L 2020 1205" class="crit-line" />
  <line x1="1685" y1="1420" x2="1615" y2="1420" class="crit-line" marker-end="url(#arrow-crit)" />
  <line x1="1345" y1="1420" x2="1285" y2="1420" class="crit-line" marker-end="url(#arrow-crit)" />
  <line x1="1015" y1="1420" x2="890" y2="1420" class="crit-line" marker-end="url(#arrow-crit)" />

  <!-- Terminal: Start -->
  <g>
    <rect x="90" y="217" width="140" height="66" rx="10" ry="10" fill="#FFFFFF" stroke="#000000" stroke-width="2.8" />
    <text x="160" y="259" class="font-main" font-size="26" font-weight="900" fill="#000000" text-anchor="middle">Start</text>
  </g>
  <!-- Activity Node A -->
  <g>
    <!-- Floating Slack Box (High-Contrast Black Border & Text) -->
    <rect x="447" y="141" width="86" height="38" rx="6" ry="6" fill="#FFFFFF" stroke="#000000" stroke-width="2.2" />
    <text x="490" y="169" class="font-main" font-size="28" font-weight="900" fill="#000000" text-anchor="middle">0</text>

    <!-- Main Container -->
    <rect x="355" y="187" width="270" height="126" rx="8" ry="8" fill="#FFFFFF" stroke="#000000" stroke-width="2.8" />
    
    <!-- Dividing Lines -->
    <line x1="355" y1="250" x2="625" y2="250" stroke="#000000" stroke-width="2.0" />
    <line x1="437" y1="187" x2="437" y2="313" stroke="#000000" stroke-width="2.0" />
    <line x1="543" y1="187" x2="543" y2="313" stroke="#000000" stroke-width="2.0" />

    <!-- Top Row: ES | Activity ID | EF (ALL BOLD BLACK) -->
    <text x="396" y="227" class="font-main" font-size="20" font-weight="900" fill="#000000" text-anchor="middle">ES: 0</text>
    <text x="490" y="229" class="font-main" font-size="25" font-weight="900" fill="#000000" text-anchor="middle">A: A</text>
    <text x="584" y="227" class="font-main" font-size="20" font-weight="900" fill="#000000" text-anchor="middle">EF: 14</text>

    <!-- Bottom Row: LS | Duration | LF (ALL BOLD BLACK) -->
    <text x="396" y="293" class="font-main" font-size="20" font-weight="900" fill="#000000" text-anchor="middle">LS: 0</text>
    <text x="490" y="293" class="font-main" font-size="23" font-weight="900" fill="#000000" text-anchor="middle">D: 14</text>
    <text x="584" y="293" class="font-main" font-size="20" font-weight="900" fill="#000000" text-anchor="middle">LF: 14</text>
  </g>
  <!-- Activity Node B -->
  <g>
    <!-- Floating Slack Box (High-Contrast Black Border & Text) -->
    <rect x="777" y="141" width="86" height="38" rx="6" ry="6" fill="#FFFFFF" stroke="#000000" stroke-width="2.2" />
    <text x="820" y="169" class="font-main" font-size="28" font-weight="900" fill="#000000" text-anchor="middle">0</text>

    <!-- Main Container -->
    <rect x="685" y="187" width="270" height="126" rx="8" ry="8" fill="#FFFFFF" stroke="#000000" stroke-width="2.8" />
    
    <!-- Dividing Lines -->
    <line x1="685" y1="250" x2="955" y2="250" stroke="#000000" stroke-width="2.0" />
    <line x1="767" y1="187" x2="767" y2="313" stroke="#000000" stroke-width="2.0" />
    <line x1="873" y1="187" x2="873" y2="313" stroke="#000000" stroke-width="2.0" />

    <!-- Top Row: ES | Activity ID | EF (ALL BOLD BLACK) -->
    <text x="726" y="227" class="font-main" font-size="20" font-weight="900" fill="#000000" text-anchor="middle">ES: 5</text>
    <text x="820" y="229" class="font-main" font-size="25" font-weight="900" fill="#000000" text-anchor="middle">A: B</text>
    <text x="914" y="227" class="font-main" font-size="20" font-weight="900" fill="#000000" text-anchor="middle">EF: 21</text>

    <!-- Bottom Row: LS | Duration | LF (ALL BOLD BLACK) -->
    <text x="726" y="293" class="font-main" font-size="20" font-weight="900" fill="#000000" text-anchor="middle">LS: 5</text>
    <text x="820" y="293" class="font-main" font-size="23" font-weight="900" fill="#000000" text-anchor="middle">D: 16</text>
    <text x="914" y="293" class="font-main" font-size="20" font-weight="900" fill="#000000" text-anchor="middle">LF: 21</text>
  </g>
  <!-- Activity Node C -->
  <g>
    <!-- Floating Slack Box (High-Contrast Black Border & Text) -->
    <rect x="1107" y="141" width="86" height="38" rx="6" ry="6" fill="#FFFFFF" stroke="#000000" stroke-width="2.2" />
    <text x="1150" y="169" class="font-main" font-size="28" font-weight="900" fill="#000000" text-anchor="middle">0</text>

    <!-- Main Container -->
    <rect x="1015" y="187" width="270" height="126" rx="8" ry="8" fill="#FFFFFF" stroke="#000000" stroke-width="2.8" />
    
    <!-- Dividing Lines -->
    <line x1="1015" y1="250" x2="1285" y2="250" stroke="#000000" stroke-width="2.0" />
    <line x1="1097" y1="187" x2="1097" y2="313" stroke="#000000" stroke-width="2.0" />
    <line x1="1203" y1="187" x2="1203" y2="313" stroke="#000000" stroke-width="2.0" />

    <!-- Top Row: ES | Activity ID | EF (ALL BOLD BLACK) -->
    <text x="1056" y="227" class="font-main" font-size="20" font-weight="900" fill="#000000" text-anchor="middle">ES: 15</text>
    <text x="1150" y="229" class="font-main" font-size="25" font-weight="900" fill="#000000" text-anchor="middle">A: C</text>
    <text x="1244" y="227" class="font-main" font-size="20" font-weight="900" fill="#000000" text-anchor="middle">EF: 31</text>

    <!-- Bottom Row: LS | Duration | LF (ALL BOLD BLACK) -->
    <text x="1056" y="293" class="font-main" font-size="20" font-weight="900" fill="#000000" text-anchor="middle">LS: 15</text>
    <text x="1150" y="293" class="font-main" font-size="23" font-weight="900" fill="#000000" text-anchor="middle">D: 16</text>
    <text x="1244" y="293" class="font-main" font-size="20" font-weight="900" fill="#000000" text-anchor="middle">LF: 31</text>
  </g>
  <!-- Activity Node D -->
  <g>
    <!-- Floating Slack Box (High-Contrast Black Border & Text) -->
    <rect x="1437" y="141" width="86" height="38" rx="6" ry="6" fill="#FFFFFF" stroke="#000000" stroke-width="2.2" />
    <text x="1480" y="169" class="font-main" font-size="28" font-weight="900" fill="#000000" text-anchor="middle">0</text>

    <!-- Main Container -->
    <rect x="1345" y="187" width="270" height="126" rx="8" ry="8" fill="#FFFFFF" stroke="#000000" stroke-width="2.8" />
    
    <!-- Dividing Lines -->
    <line x1="1345" y1="250" x2="1615" y2="250" stroke="#000000" stroke-width="2.0" />
    <line x1="1427" y1="187" x2="1427" y2="313" stroke="#000000" stroke-width="2.0" />
    <line x1="1533" y1="187" x2="1533" y2="313" stroke="#000000" stroke-width="2.0" />

    <!-- Top Row: ES | Activity ID | EF (ALL BOLD BLACK) -->
    <text x="1386" y="227" class="font-main" font-size="20" font-weight="900" fill="#000000" text-anchor="middle">ES: 21</text>
    <text x="1480" y="229" class="font-main" font-size="25" font-weight="900" fill="#000000" text-anchor="middle">A: D</text>
    <text x="1574" y="227" class="font-main" font-size="20" font-weight="900" fill="#000000" text-anchor="middle">EF: 37</text>

    <!-- Bottom Row: LS | Duration | LF (ALL BOLD BLACK) -->
    <text x="1386" y="293" class="font-main" font-size="20" font-weight="900" fill="#000000" text-anchor="middle">LS: 21</text>
    <text x="1480" y="293" class="font-main" font-size="23" font-weight="900" fill="#000000" text-anchor="middle">D: 16</text>
    <text x="1574" y="293" class="font-main" font-size="20" font-weight="900" fill="#000000" text-anchor="middle">LF: 37</text>
  </g>
  <!-- Activity Node E -->
  <g>
    <!-- Floating Slack Box (High-Contrast Black Border & Text) -->
    <rect x="1777" y="41" width="86" height="38" rx="6" ry="6" fill="#FFFFFF" stroke="#000000" stroke-width="2.2" />
    <text x="1820" y="69" class="font-main" font-size="28" font-weight="900" fill="#000000" text-anchor="middle">2</text>

    <!-- Main Container -->
    <rect x="1685" y="87" width="270" height="126" rx="8" ry="8" fill="#FFFFFF" stroke="#000000" stroke-width="2.8" />
    
    <!-- Dividing Lines -->
    <line x1="1685" y1="150" x2="1955" y2="150" stroke="#000000" stroke-width="2.0" />
    <line x1="1767" y1="87" x2="1767" y2="213" stroke="#000000" stroke-width="2.0" />
    <line x1="1873" y1="87" x2="1873" y2="213" stroke="#000000" stroke-width="2.0" />

    <!-- Top Row: ES | Activity ID | EF (ALL BOLD BLACK) -->
    <text x="1726" y="127" class="font-main" font-size="20" font-weight="900" fill="#000000" text-anchor="middle">ES: 27</text>
    <text x="1820" y="129" class="font-main" font-size="25" font-weight="900" fill="#000000" text-anchor="middle">A: E</text>
    <text x="1914" y="127" class="font-main" font-size="20" font-weight="900" fill="#000000" text-anchor="middle">EF: 45</text>

    <!-- Bottom Row: LS | Duration | LF (ALL BOLD BLACK) -->
    <text x="1726" y="193" class="font-main" font-size="20" font-weight="900" fill="#000000" text-anchor="middle">LS: 29</text>
    <text x="1820" y="193" class="font-main" font-size="23" font-weight="900" fill="#000000" text-anchor="middle">D: 18</text>
    <text x="1914" y="193" class="font-main" font-size="20" font-weight="900" fill="#000000" text-anchor="middle">LF: 47</text>
  </g>
  <!-- Activity Node F -->
  <g>
    <!-- Floating Slack Box (High-Contrast Black Border & Text) -->
    <rect x="1777" y="246" width="86" height="38" rx="6" ry="6" fill="#FFFFFF" stroke="#000000" stroke-width="2.2" />
    <text x="1820" y="274" class="font-main" font-size="28" font-weight="900" fill="#000000" text-anchor="middle">0</text>

    <!-- Main Container -->
    <rect x="1685" y="292" width="270" height="126" rx="8" ry="8" fill="#FFFFFF" stroke="#000000" stroke-width="2.8" />
    
    <!-- Dividing Lines -->
    <line x1="1685" y1="355" x2="1955" y2="355" stroke="#000000" stroke-width="2.0" />
    <line x1="1767" y1="292" x2="1767" y2="418" stroke="#000000" stroke-width="2.0" />
    <line x1="1873" y1="292" x2="1873" y2="418" stroke="#000000" stroke-width="2.0" />

    <!-- Top Row: ES | Activity ID | EF (ALL BOLD BLACK) -->
    <text x="1726" y="332" class="font-main" font-size="20" font-weight="900" fill="#000000" text-anchor="middle">ES: 38</text>
    <text x="1820" y="334" class="font-main" font-size="25" font-weight="900" fill="#000000" text-anchor="middle">A: F</text>
    <text x="1914" y="332" class="font-main" font-size="20" font-weight="900" fill="#000000" text-anchor="middle">EF: 52</text>

    <!-- Bottom Row: LS | Duration | LF (ALL BOLD BLACK) -->
    <text x="1726" y="398" class="font-main" font-size="20" font-weight="900" fill="#000000" text-anchor="middle">LS: 38</text>
    <text x="1820" y="398" class="font-main" font-size="23" font-weight="900" fill="#000000" text-anchor="middle">D: 14</text>
    <text x="1914" y="398" class="font-main" font-size="20" font-weight="900" fill="#000000" text-anchor="middle">LF: 52</text>
  </g>
  <!-- Activity Node G -->
  <g>
    <!-- Floating Slack Box (High-Contrast Black Border & Text) -->
    <rect x="2127" y="246" width="86" height="38" rx="6" ry="6" fill="#FFFFFF" stroke="#000000" stroke-width="2.2" />
    <text x="2170" y="274" class="font-main" font-size="28" font-weight="900" fill="#000000" text-anchor="middle">0</text>

    <!-- Main Container -->
    <rect x="2035" y="292" width="270" height="126" rx="8" ry="8" fill="#FFFFFF" stroke="#000000" stroke-width="2.8" />
    
    <!-- Dividing Lines -->
    <line x1="2035" y1="355" x2="2305" y2="355" stroke="#000000" stroke-width="2.0" />
    <line x1="2117" y1="292" x2="2117" y2="418" stroke="#000000" stroke-width="2.0" />
    <line x1="2223" y1="292" x2="2223" y2="418" stroke="#000000" stroke-width="2.0" />

    <!-- Top Row: ES | Activity ID | EF (ALL BOLD BLACK) -->
    <text x="2076" y="332" class="font-main" font-size="20" font-weight="900" fill="#000000" text-anchor="middle">ES: 41</text>
    <text x="2170" y="334" class="font-main" font-size="25" font-weight="900" fill="#000000" text-anchor="middle">A: G</text>
    <text x="2264" y="332" class="font-main" font-size="20" font-weight="900" fill="#000000" text-anchor="middle">EF: 55</text>

    <!-- Bottom Row: LS | Duration | LF (ALL BOLD BLACK) -->
    <text x="2076" y="398" class="font-main" font-size="20" font-weight="900" fill="#000000" text-anchor="middle">LS: 41</text>
    <text x="2170" y="398" class="font-main" font-size="23" font-weight="900" fill="#000000" text-anchor="middle">D: 14</text>
    <text x="2264" y="398" class="font-main" font-size="20" font-weight="900" fill="#000000" text-anchor="middle">LF: 55</text>
  </g>
  <!-- Activity Node H -->
  <g>
    <!-- Floating Slack Box (High-Contrast Black Border & Text) -->
    <rect x="2477" y="246" width="86" height="38" rx="6" ry="6" fill="#FFFFFF" stroke="#000000" stroke-width="2.2" />
    <text x="2520" y="274" class="font-main" font-size="28" font-weight="900" fill="#000000" text-anchor="middle">0</text>

    <!-- Main Container -->
    <rect x="2385" y="292" width="270" height="126" rx="8" ry="8" fill="#FFFFFF" stroke="#000000" stroke-width="2.8" />
    
    <!-- Dividing Lines -->
    <line x1="2385" y1="355" x2="2655" y2="355" stroke="#000000" stroke-width="2.0" />
    <line x1="2467" y1="292" x2="2467" y2="418" stroke="#000000" stroke-width="2.0" />
    <line x1="2573" y1="292" x2="2573" y2="418" stroke="#000000" stroke-width="2.0" />

    <!-- Top Row: ES | Activity ID | EF (ALL BOLD BLACK) -->
    <text x="2426" y="332" class="font-main" font-size="20" font-weight="900" fill="#000000" text-anchor="middle">ES: 44</text>
    <text x="2520" y="334" class="font-main" font-size="25" font-weight="900" fill="#000000" text-anchor="middle">A: H</text>
    <text x="2614" y="332" class="font-main" font-size="20" font-weight="900" fill="#000000" text-anchor="middle">EF: 60</text>

    <!-- Bottom Row: LS | Duration | LF (ALL BOLD BLACK) -->
    <text x="2426" y="398" class="font-main" font-size="20" font-weight="900" fill="#000000" text-anchor="middle">LS: 44</text>
    <text x="2520" y="398" class="font-main" font-size="23" font-weight="900" fill="#000000" text-anchor="middle">D: 16</text>
    <text x="2614" y="398" class="font-main" font-size="20" font-weight="900" fill="#000000" text-anchor="middle">LF: 60</text>
  </g>
  <!-- Activity Node I -->
  <g>
    <!-- Floating Slack Box (High-Contrast Black Border & Text) -->
    <rect x="2477" y="561" width="86" height="38" rx="6" ry="6" fill="#FFFFFF" stroke="#000000" stroke-width="2.2" />
    <text x="2520" y="589" class="font-main" font-size="28" font-weight="900" fill="#000000" text-anchor="middle">0</text>

    <!-- Main Container -->
    <rect x="2385" y="607" width="270" height="126" rx="8" ry="8" fill="#FFFFFF" stroke="#000000" stroke-width="2.8" />
    
    <!-- Dividing Lines -->
    <line x1="2385" y1="670" x2="2655" y2="670" stroke="#000000" stroke-width="2.0" />
    <line x1="2467" y1="607" x2="2467" y2="733" stroke="#000000" stroke-width="2.0" />
    <line x1="2573" y1="607" x2="2573" y2="733" stroke="#000000" stroke-width="2.0" />

    <!-- Top Row: ES | Activity ID | EF (ALL BOLD BLACK) -->
    <text x="2426" y="647" class="font-main" font-size="20" font-weight="900" fill="#000000" text-anchor="middle">ES: 54</text>
    <text x="2520" y="649" class="font-main" font-size="25" font-weight="900" fill="#000000" text-anchor="middle">A: I</text>
    <text x="2614" y="647" class="font-main" font-size="20" font-weight="900" fill="#000000" text-anchor="middle">EF: 69</text>

    <!-- Bottom Row: LS | Duration | LF (ALL BOLD BLACK) -->
    <text x="2426" y="713" class="font-main" font-size="20" font-weight="900" fill="#000000" text-anchor="middle">LS: 54</text>
    <text x="2520" y="713" class="font-main" font-size="23" font-weight="900" fill="#000000" text-anchor="middle">D: 15</text>
    <text x="2614" y="713" class="font-main" font-size="20" font-weight="900" fill="#000000" text-anchor="middle">LF: 69</text>
  </g>
  <!-- Activity Node J -->
  <g>
    <!-- Floating Slack Box (High-Contrast Black Border & Text) -->
    <rect x="2127" y="446" width="86" height="38" rx="6" ry="6" fill="#FFFFFF" stroke="#000000" stroke-width="2.2" />
    <text x="2170" y="474" class="font-main" font-size="28" font-weight="900" fill="#000000" text-anchor="middle">2</text>

    <!-- Main Container -->
    <rect x="2035" y="492" width="270" height="126" rx="8" ry="8" fill="#FFFFFF" stroke="#000000" stroke-width="2.8" />
    
    <!-- Dividing Lines -->
    <line x1="2035" y1="555" x2="2305" y2="555" stroke="#000000" stroke-width="2.0" />
    <line x1="2117" y1="492" x2="2117" y2="618" stroke="#000000" stroke-width="2.0" />
    <line x1="2223" y1="492" x2="2223" y2="618" stroke="#000000" stroke-width="2.0" />

    <!-- Top Row: ES | Activity ID | EF (ALL BOLD BLACK) -->
    <text x="2076" y="532" class="font-main" font-size="20" font-weight="900" fill="#000000" text-anchor="middle">ES: 60</text>
    <text x="2170" y="534" class="font-main" font-size="25" font-weight="900" fill="#000000" text-anchor="middle">A: J</text>
    <text x="2264" y="532" class="font-main" font-size="20" font-weight="900" fill="#000000" text-anchor="middle">EF: 84</text>

    <!-- Bottom Row: LS | Duration | LF (ALL BOLD BLACK) -->
    <text x="2076" y="598" class="font-main" font-size="20" font-weight="900" fill="#000000" text-anchor="middle">LS: 62</text>
    <text x="2170" y="598" class="font-main" font-size="23" font-weight="900" fill="#000000" text-anchor="middle">D: 24</text>
    <text x="2264" y="598" class="font-main" font-size="20" font-weight="900" fill="#000000" text-anchor="middle">LF: 86</text>
  </g>
  <!-- Activity Node K -->
  <g>
    <!-- Floating Slack Box (High-Contrast Black Border & Text) -->
    <rect x="2127" y="676" width="86" height="38" rx="6" ry="6" fill="#FFFFFF" stroke="#000000" stroke-width="2.2" />
    <text x="2170" y="704" class="font-main" font-size="28" font-weight="900" fill="#000000" text-anchor="middle">0</text>

    <!-- Main Container -->
    <rect x="2035" y="722" width="270" height="126" rx="8" ry="8" fill="#FFFFFF" stroke="#000000" stroke-width="2.8" />
    
    <!-- Dividing Lines -->
    <line x1="2035" y1="785" x2="2305" y2="785" stroke="#000000" stroke-width="2.0" />
    <line x1="2117" y1="722" x2="2117" y2="848" stroke="#000000" stroke-width="2.0" />
    <line x1="2223" y1="722" x2="2223" y2="848" stroke="#000000" stroke-width="2.0" />

    <!-- Top Row: ES | Activity ID | EF (ALL BOLD BLACK) -->
    <text x="2076" y="762" class="font-main" font-size="20" font-weight="900" fill="#000000" text-anchor="middle">ES: 64</text>
    <text x="2170" y="764" class="font-main" font-size="25" font-weight="900" fill="#000000" text-anchor="middle">A: K</text>
    <text x="2264" y="762" class="font-main" font-size="20" font-weight="900" fill="#000000" text-anchor="middle">EF: 88</text>

    <!-- Bottom Row: LS | Duration | LF (ALL BOLD BLACK) -->
    <text x="2076" y="828" class="font-main" font-size="20" font-weight="900" fill="#000000" text-anchor="middle">LS: 64</text>
    <text x="2170" y="828" class="font-main" font-size="23" font-weight="900" fill="#000000" text-anchor="middle">D: 24</text>
    <text x="2264" y="828" class="font-main" font-size="20" font-weight="900" fill="#000000" text-anchor="middle">LF: 88</text>
  </g>
  <!-- Activity Node L -->
  <g>
    <!-- Floating Slack Box (High-Contrast Black Border & Text) -->
    <rect x="1777" y="561" width="86" height="38" rx="6" ry="6" fill="#FFFFFF" stroke="#000000" stroke-width="2.2" />
    <text x="1820" y="589" class="font-main" font-size="28" font-weight="900" fill="#000000" text-anchor="middle">0</text>

    <!-- Main Container -->
    <rect x="1685" y="607" width="270" height="126" rx="8" ry="8" fill="#FFFFFF" stroke="#000000" stroke-width="2.8" />
    
    <!-- Dividing Lines -->
    <line x1="1685" y1="670" x2="1955" y2="670" stroke="#000000" stroke-width="2.0" />
    <line x1="1767" y1="607" x2="1767" y2="733" stroke="#000000" stroke-width="2.0" />
    <line x1="1873" y1="607" x2="1873" y2="733" stroke="#000000" stroke-width="2.0" />

    <!-- Top Row: ES | Activity ID | EF (ALL BOLD BLACK) -->
    <text x="1726" y="647" class="font-main" font-size="20" font-weight="900" fill="#000000" text-anchor="middle">ES: 71</text>
    <text x="1820" y="649" class="font-main" font-size="25" font-weight="900" fill="#000000" text-anchor="middle">A: L</text>
    <text x="1914" y="647" class="font-main" font-size="20" font-weight="900" fill="#000000" text-anchor="middle">EF: 93</text>

    <!-- Bottom Row: LS | Duration | LF (ALL BOLD BLACK) -->
    <text x="1726" y="713" class="font-main" font-size="20" font-weight="900" fill="#000000" text-anchor="middle">LS: 71</text>
    <text x="1820" y="713" class="font-main" font-size="23" font-weight="900" fill="#000000" text-anchor="middle">D: 22</text>
    <text x="1914" y="713" class="font-main" font-size="20" font-weight="900" fill="#000000" text-anchor="middle">LF: 93</text>
  </g>
  <!-- Activity Node M -->
  <g>
    <!-- Floating Slack Box (High-Contrast Black Border & Text) -->
    <rect x="1437" y="446" width="86" height="38" rx="6" ry="6" fill="#FFFFFF" stroke="#000000" stroke-width="2.2" />
    <text x="1480" y="474" class="font-main" font-size="28" font-weight="900" fill="#000000" text-anchor="middle">0</text>

    <!-- Main Container -->
    <rect x="1345" y="492" width="270" height="126" rx="8" ry="8" fill="#FFFFFF" stroke="#000000" stroke-width="2.8" />
    
    <!-- Dividing Lines -->
    <line x1="1345" y1="555" x2="1615" y2="555" stroke="#000000" stroke-width="2.0" />
    <line x1="1427" y1="492" x2="1427" y2="618" stroke="#000000" stroke-width="2.0" />
    <line x1="1533" y1="492" x2="1533" y2="618" stroke="#000000" stroke-width="2.0" />

    <!-- Top Row: ES | Activity ID | EF (ALL BOLD BLACK) -->
    <text x="1386" y="532" class="font-main" font-size="20" font-weight="900" fill="#000000" text-anchor="middle">ES: 76</text>
    <text x="1480" y="534" class="font-main" font-size="25" font-weight="900" fill="#000000" text-anchor="middle">A: M</text>
    <text x="1574" y="532" class="font-main" font-size="20" font-weight="900" fill="#000000" text-anchor="middle">EF: 98</text>

    <!-- Bottom Row: LS | Duration | LF (ALL BOLD BLACK) -->
    <text x="1386" y="598" class="font-main" font-size="20" font-weight="900" fill="#000000" text-anchor="middle">LS: 76</text>
    <text x="1480" y="598" class="font-main" font-size="23" font-weight="900" fill="#000000" text-anchor="middle">D: 22</text>
    <text x="1574" y="598" class="font-main" font-size="20" font-weight="900" fill="#000000" text-anchor="middle">LF: 98</text>
  </g>
  <!-- Activity Node N -->
  <g>
    <!-- Floating Slack Box (High-Contrast Black Border & Text) -->
    <rect x="1437" y="676" width="86" height="38" rx="6" ry="6" fill="#FFFFFF" stroke="#000000" stroke-width="2.2" />
    <text x="1480" y="704" class="font-main" font-size="28" font-weight="900" fill="#000000" text-anchor="middle">0</text>

    <!-- Main Container -->
    <rect x="1345" y="722" width="270" height="126" rx="8" ry="8" fill="#FFFFFF" stroke="#000000" stroke-width="2.8" />
    
    <!-- Dividing Lines -->
    <line x1="1345" y1="785" x2="1615" y2="785" stroke="#000000" stroke-width="2.0" />
    <line x1="1427" y1="722" x2="1427" y2="848" stroke="#000000" stroke-width="2.0" />
    <line x1="1533" y1="722" x2="1533" y2="848" stroke="#000000" stroke-width="2.0" />

    <!-- Top Row: ES | Activity ID | EF (ALL BOLD BLACK) -->
    <text x="1386" y="762" class="font-main" font-size="20" font-weight="900" fill="#000000" text-anchor="middle">ES: 78</text>
    <text x="1480" y="764" class="font-main" font-size="25" font-weight="900" fill="#000000" text-anchor="middle">A: N</text>
    <text x="1574" y="762" class="font-main" font-size="20" font-weight="900" fill="#000000" text-anchor="middle">EF: 98</text>

    <!-- Bottom Row: LS | Duration | LF (ALL BOLD BLACK) -->
    <text x="1386" y="828" class="font-main" font-size="20" font-weight="900" fill="#000000" text-anchor="middle">LS: 78</text>
    <text x="1480" y="828" class="font-main" font-size="23" font-weight="900" fill="#000000" text-anchor="middle">D: 20</text>
    <text x="1574" y="828" class="font-main" font-size="20" font-weight="900" fill="#000000" text-anchor="middle">LF: 98</text>
  </g>
  <!-- Activity Node O -->
  <g>
    <!-- Floating Slack Box (High-Contrast Black Border & Text) -->
    <rect x="1107" y="561" width="86" height="38" rx="6" ry="6" fill="#FFFFFF" stroke="#000000" stroke-width="2.2" />
    <text x="1150" y="589" class="font-main" font-size="28" font-weight="900" fill="#000000" text-anchor="middle">2</text>

    <!-- Main Container -->
    <rect x="1015" y="607" width="270" height="126" rx="8" ry="8" fill="#FFFFFF" stroke="#000000" stroke-width="2.8" />
    
    <!-- Dividing Lines -->
    <line x1="1015" y1="670" x2="1285" y2="670" stroke="#000000" stroke-width="2.0" />
    <line x1="1097" y1="607" x2="1097" y2="733" stroke="#000000" stroke-width="2.0" />
    <line x1="1203" y1="607" x2="1203" y2="733" stroke="#000000" stroke-width="2.0" />

    <!-- Top Row: ES | Activity ID | EF (ALL BOLD BLACK) -->
    <text x="1056" y="647" class="font-main" font-size="20" font-weight="900" fill="#000000" text-anchor="middle">ES: 84</text>
    <text x="1150" y="649" class="font-main" font-size="25" font-weight="900" fill="#000000" text-anchor="middle">A: O</text>
    <text x="1244" y="647" class="font-main" font-size="20" font-weight="900" fill="#000000" text-anchor="middle">EF: 106</text>

    <!-- Bottom Row: LS | Duration | LF (ALL BOLD BLACK) -->
    <text x="1056" y="713" class="font-main" font-size="20" font-weight="900" fill="#000000" text-anchor="middle">LS: 86</text>
    <text x="1150" y="713" class="font-main" font-size="23" font-weight="900" fill="#000000" text-anchor="middle">D: 22</text>
    <text x="1244" y="713" class="font-main" font-size="20" font-weight="900" fill="#000000" text-anchor="middle">LF: 108</text>
  </g>
  <!-- Activity Node P -->
  <g>
    <!-- Floating Slack Box (High-Contrast Black Border & Text) -->
    <rect x="777" y="981" width="86" height="38" rx="6" ry="6" fill="#FFFFFF" stroke="#000000" stroke-width="2.2" />
    <text x="820" y="1009" class="font-main" font-size="28" font-weight="900" fill="#000000" text-anchor="middle">0</text>

    <!-- Main Container -->
    <rect x="685" y="1027" width="270" height="126" rx="8" ry="8" fill="#FFFFFF" stroke="#000000" stroke-width="2.8" />
    
    <!-- Dividing Lines -->
    <line x1="685" y1="1090" x2="955" y2="1090" stroke="#000000" stroke-width="2.0" />
    <line x1="767" y1="1027" x2="767" y2="1153" stroke="#000000" stroke-width="2.0" />
    <line x1="873" y1="1027" x2="873" y2="1153" stroke="#000000" stroke-width="2.0" />

    <!-- Top Row: ES | Activity ID | EF (ALL BOLD BLACK) -->
    <text x="726" y="1067" class="font-main" font-size="20" font-weight="900" fill="#000000" text-anchor="middle">ES: 95</text>
    <text x="820" y="1069" class="font-main" font-size="25" font-weight="900" fill="#000000" text-anchor="middle">A: P</text>
    <text x="914" y="1067" class="font-main" font-size="20" font-weight="900" fill="#000000" text-anchor="middle">EF: 116</text>

    <!-- Bottom Row: LS | Duration | LF (ALL BOLD BLACK) -->
    <text x="726" y="1133" class="font-main" font-size="20" font-weight="900" fill="#000000" text-anchor="middle">LS: 95</text>
    <text x="820" y="1133" class="font-main" font-size="23" font-weight="900" fill="#000000" text-anchor="middle">D: 21</text>
    <text x="914" y="1133" class="font-main" font-size="20" font-weight="900" fill="#000000" text-anchor="middle">LF: 116</text>
  </g>
  <!-- Activity Node Q -->
  <g>
    <!-- Floating Slack Box (High-Contrast Black Border & Text) -->
    <rect x="1107" y="866" width="86" height="38" rx="6" ry="6" fill="#FFFFFF" stroke="#000000" stroke-width="2.2" />
    <text x="1150" y="894" class="font-main" font-size="28" font-weight="900" fill="#000000" text-anchor="middle">0</text>

    <!-- Main Container -->
    <rect x="1015" y="912" width="270" height="126" rx="8" ry="8" fill="#FFFFFF" stroke="#000000" stroke-width="2.8" />
    
    <!-- Dividing Lines -->
    <line x1="1015" y1="975" x2="1285" y2="975" stroke="#000000" stroke-width="2.0" />
    <line x1="1097" y1="912" x2="1097" y2="1038" stroke="#000000" stroke-width="2.0" />
    <line x1="1203" y1="912" x2="1203" y2="1038" stroke="#000000" stroke-width="2.0" />

    <!-- Top Row: ES | Activity ID | EF (ALL BOLD BLACK) -->
    <text x="1056" y="952" class="font-main" font-size="20" font-weight="900" fill="#000000" text-anchor="middle">ES: 105</text>
    <text x="1150" y="954" class="font-main" font-size="25" font-weight="900" fill="#000000" text-anchor="middle">A: Q</text>
    <text x="1244" y="952" class="font-main" font-size="20" font-weight="900" fill="#000000" text-anchor="middle">EF: 127</text>

    <!-- Bottom Row: LS | Duration | LF (ALL BOLD BLACK) -->
    <text x="1056" y="1018" class="font-main" font-size="20" font-weight="900" fill="#000000" text-anchor="middle">LS: 105</text>
    <text x="1150" y="1018" class="font-main" font-size="23" font-weight="900" fill="#000000" text-anchor="middle">D: 22</text>
    <text x="1244" y="1018" class="font-main" font-size="20" font-weight="900" fill="#000000" text-anchor="middle">LF: 127</text>
  </g>
  <!-- Activity Node R -->
  <g>
    <!-- Floating Slack Box (High-Contrast Black Border & Text) -->
    <rect x="1107" y="1096" width="86" height="38" rx="6" ry="6" fill="#FFFFFF" stroke="#000000" stroke-width="2.2" />
    <text x="1150" y="1124" class="font-main" font-size="28" font-weight="900" fill="#000000" text-anchor="middle">1</text>

    <!-- Main Container -->
    <rect x="1015" y="1142" width="270" height="126" rx="8" ry="8" fill="#FFFFFF" stroke="#000000" stroke-width="2.8" />
    
    <!-- Dividing Lines -->
    <line x1="1015" y1="1205" x2="1285" y2="1205" stroke="#000000" stroke-width="2.0" />
    <line x1="1097" y1="1142" x2="1097" y2="1268" stroke="#000000" stroke-width="2.0" />
    <line x1="1203" y1="1142" x2="1203" y2="1268" stroke="#000000" stroke-width="2.0" />

    <!-- Top Row: ES | Activity ID | EF (ALL BOLD BLACK) -->
    <text x="1056" y="1182" class="font-main" font-size="20" font-weight="900" fill="#000000" text-anchor="middle">ES: 112</text>
    <text x="1150" y="1184" class="font-main" font-size="25" font-weight="900" fill="#000000" text-anchor="middle">A: R</text>
    <text x="1244" y="1182" class="font-main" font-size="20" font-weight="900" fill="#000000" text-anchor="middle">EF: 133</text>

    <!-- Bottom Row: LS | Duration | LF (ALL BOLD BLACK) -->
    <text x="1056" y="1248" class="font-main" font-size="20" font-weight="900" fill="#000000" text-anchor="middle">LS: 113</text>
    <text x="1150" y="1248" class="font-main" font-size="23" font-weight="900" fill="#000000" text-anchor="middle">D: 21</text>
    <text x="1244" y="1248" class="font-main" font-size="20" font-weight="900" fill="#000000" text-anchor="middle">LF: 134</text>
  </g>
  <!-- Activity Node S -->
  <g>
    <!-- Floating Slack Box (High-Contrast Black Border & Text) -->
    <rect x="1437" y="981" width="86" height="38" rx="6" ry="6" fill="#FFFFFF" stroke="#000000" stroke-width="2.2" />
    <text x="1480" y="1009" class="font-main" font-size="28" font-weight="900" fill="#000000" text-anchor="middle">0</text>

    <!-- Main Container -->
    <rect x="1345" y="1027" width="270" height="126" rx="8" ry="8" fill="#FFFFFF" stroke="#000000" stroke-width="2.8" />
    
    <!-- Dividing Lines -->
    <line x1="1345" y1="1090" x2="1615" y2="1090" stroke="#000000" stroke-width="2.0" />
    <line x1="1427" y1="1027" x2="1427" y2="1153" stroke="#000000" stroke-width="2.0" />
    <line x1="1533" y1="1027" x2="1533" y2="1153" stroke="#000000" stroke-width="2.0" />

    <!-- Top Row: ES | Activity ID | EF (ALL BOLD BLACK) -->
    <text x="1386" y="1067" class="font-main" font-size="20" font-weight="900" fill="#000000" text-anchor="middle">ES: 119</text>
    <text x="1480" y="1069" class="font-main" font-size="25" font-weight="900" fill="#000000" text-anchor="middle">A: S</text>
    <text x="1574" y="1067" class="font-main" font-size="20" font-weight="900" fill="#000000" text-anchor="middle">EF: 139</text>

    <!-- Bottom Row: LS | Duration | LF (ALL BOLD BLACK) -->
    <text x="1386" y="1133" class="font-main" font-size="20" font-weight="900" fill="#000000" text-anchor="middle">LS: 119</text>
    <text x="1480" y="1133" class="font-main" font-size="23" font-weight="900" fill="#000000" text-anchor="middle">D: 20</text>
    <text x="1574" y="1133" class="font-main" font-size="20" font-weight="900" fill="#000000" text-anchor="middle">LF: 139</text>
  </g>
  <!-- Activity Node T -->
  <g>
    <!-- Floating Slack Box (High-Contrast Black Border & Text) -->
    <rect x="1777" y="866" width="86" height="38" rx="6" ry="6" fill="#FFFFFF" stroke="#000000" stroke-width="2.2" />
    <text x="1820" y="894" class="font-main" font-size="28" font-weight="900" fill="#000000" text-anchor="middle">0</text>

    <!-- Main Container -->
    <rect x="1685" y="912" width="270" height="126" rx="8" ry="8" fill="#FFFFFF" stroke="#000000" stroke-width="2.8" />
    
    <!-- Dividing Lines -->
    <line x1="1685" y1="975" x2="1955" y2="975" stroke="#000000" stroke-width="2.0" />
    <line x1="1767" y1="912" x2="1767" y2="1038" stroke="#000000" stroke-width="2.0" />
    <line x1="1873" y1="912" x2="1873" y2="1038" stroke="#000000" stroke-width="2.0" />

    <!-- Top Row: ES | Activity ID | EF (ALL BOLD BLACK) -->
    <text x="1726" y="952" class="font-main" font-size="20" font-weight="900" fill="#000000" text-anchor="middle">ES: 128</text>
    <text x="1820" y="954" class="font-main" font-size="25" font-weight="900" fill="#000000" text-anchor="middle">A: T</text>
    <text x="1914" y="952" class="font-main" font-size="20" font-weight="900" fill="#000000" text-anchor="middle">EF: 147</text>

    <!-- Bottom Row: LS | Duration | LF (ALL BOLD BLACK) -->
    <text x="1726" y="1018" class="font-main" font-size="20" font-weight="900" fill="#000000" text-anchor="middle">LS: 128</text>
    <text x="1820" y="1018" class="font-main" font-size="23" font-weight="900" fill="#000000" text-anchor="middle">D: 19</text>
    <text x="1914" y="1018" class="font-main" font-size="20" font-weight="900" fill="#000000" text-anchor="middle">LF: 147</text>
  </g>
  <!-- Activity Node U -->
  <g>
    <!-- Floating Slack Box (High-Contrast Black Border & Text) -->
    <rect x="1777" y="1096" width="86" height="38" rx="6" ry="6" fill="#FFFFFF" stroke="#000000" stroke-width="2.2" />
    <text x="1820" y="1124" class="font-main" font-size="28" font-weight="900" fill="#000000" text-anchor="middle">0</text>

    <!-- Main Container -->
    <rect x="1685" y="1142" width="270" height="126" rx="8" ry="8" fill="#FFFFFF" stroke="#000000" stroke-width="2.8" />
    
    <!-- Dividing Lines -->
    <line x1="1685" y1="1205" x2="1955" y2="1205" stroke="#000000" stroke-width="2.0" />
    <line x1="1767" y1="1142" x2="1767" y2="1268" stroke="#000000" stroke-width="2.0" />
    <line x1="1873" y1="1142" x2="1873" y2="1268" stroke="#000000" stroke-width="2.0" />

    <!-- Top Row: ES | Activity ID | EF (ALL BOLD BLACK) -->
    <text x="1726" y="1182" class="font-main" font-size="20" font-weight="900" fill="#000000" text-anchor="middle">ES: 133</text>
    <text x="1820" y="1184" class="font-main" font-size="25" font-weight="900" fill="#000000" text-anchor="middle">A: U</text>
    <text x="1914" y="1182" class="font-main" font-size="20" font-weight="900" fill="#000000" text-anchor="middle">EF: 147</text>

    <!-- Bottom Row: LS | Duration | LF (ALL BOLD BLACK) -->
    <text x="1726" y="1248" class="font-main" font-size="20" font-weight="900" fill="#000000" text-anchor="middle">LS: 133</text>
    <text x="1820" y="1248" class="font-main" font-size="23" font-weight="900" fill="#000000" text-anchor="middle">D: 14</text>
    <text x="1914" y="1248" class="font-main" font-size="20" font-weight="900" fill="#000000" text-anchor="middle">LF: 147</text>
  </g>
  <!-- Activity Node V -->
  <g>
    <!-- Floating Slack Box (High-Contrast Black Border & Text) -->
    <rect x="1777" y="1311" width="86" height="38" rx="6" ry="6" fill="#FFFFFF" stroke="#000000" stroke-width="2.2" />
    <text x="1820" y="1339" class="font-main" font-size="28" font-weight="900" fill="#000000" text-anchor="middle">0</text>

    <!-- Main Container -->
    <rect x="1685" y="1357" width="270" height="126" rx="8" ry="8" fill="#FFFFFF" stroke="#000000" stroke-width="2.8" />
    
    <!-- Dividing Lines -->
    <line x1="1685" y1="1420" x2="1955" y2="1420" stroke="#000000" stroke-width="2.0" />
    <line x1="1767" y1="1357" x2="1767" y2="1483" stroke="#000000" stroke-width="2.0" />
    <line x1="1873" y1="1357" x2="1873" y2="1483" stroke="#000000" stroke-width="2.0" />

    <!-- Top Row: ES | Activity ID | EF (ALL BOLD BLACK) -->
    <text x="1726" y="1397" class="font-main" font-size="20" font-weight="900" fill="#000000" text-anchor="middle">ES: 144</text>
    <text x="1820" y="1399" class="font-main" font-size="25" font-weight="900" fill="#000000" text-anchor="middle">A: V</text>
    <text x="1914" y="1397" class="font-main" font-size="20" font-weight="900" fill="#000000" text-anchor="middle">EF: 152</text>

    <!-- Bottom Row: LS | Duration | LF (ALL BOLD BLACK) -->
    <text x="1726" y="1463" class="font-main" font-size="20" font-weight="900" fill="#000000" text-anchor="middle">LS: 144</text>
    <text x="1820" y="1463" class="font-main" font-size="23" font-weight="900" fill="#000000" text-anchor="middle">D: 8</text>
    <text x="1914" y="1463" class="font-main" font-size="20" font-weight="900" fill="#000000" text-anchor="middle">LF: 152</text>
  </g>
  <!-- Activity Node W -->
  <g>
    <!-- Floating Slack Box (High-Contrast Black Border & Text) -->
    <rect x="1437" y="1311" width="86" height="38" rx="6" ry="6" fill="#FFFFFF" stroke="#000000" stroke-width="2.2" />
    <text x="1480" y="1339" class="font-main" font-size="28" font-weight="900" fill="#000000" text-anchor="middle">0</text>

    <!-- Main Container -->
    <rect x="1345" y="1357" width="270" height="126" rx="8" ry="8" fill="#FFFFFF" stroke="#000000" stroke-width="2.8" />
    
    <!-- Dividing Lines -->
    <line x1="1345" y1="1420" x2="1615" y2="1420" stroke="#000000" stroke-width="2.0" />
    <line x1="1427" y1="1357" x2="1427" y2="1483" stroke="#000000" stroke-width="2.0" />
    <line x1="1533" y1="1357" x2="1533" y2="1483" stroke="#000000" stroke-width="2.0" />

    <!-- Top Row: ES | Activity ID | EF (ALL BOLD BLACK) -->
    <text x="1386" y="1397" class="font-main" font-size="20" font-weight="900" fill="#000000" text-anchor="middle">ES: 149</text>
    <text x="1480" y="1399" class="font-main" font-size="25" font-weight="900" fill="#000000" text-anchor="middle">A: W</text>
    <text x="1574" y="1397" class="font-main" font-size="20" font-weight="900" fill="#000000" text-anchor="middle">EF: 155</text>

    <!-- Bottom Row: LS | Duration | LF (ALL BOLD BLACK) -->
    <text x="1386" y="1463" class="font-main" font-size="20" font-weight="900" fill="#000000" text-anchor="middle">LS: 149</text>
    <text x="1480" y="1463" class="font-main" font-size="23" font-weight="900" fill="#000000" text-anchor="middle">D: 6</text>
    <text x="1574" y="1463" class="font-main" font-size="20" font-weight="900" fill="#000000" text-anchor="middle">LF: 155</text>
  </g>
  <!-- Activity Node X -->
  <g>
    <!-- Floating Slack Box (High-Contrast Black Border & Text) -->
    <rect x="1107" y="1311" width="86" height="38" rx="6" ry="6" fill="#FFFFFF" stroke="#000000" stroke-width="2.2" />
    <text x="1150" y="1339" class="font-main" font-size="28" font-weight="900" fill="#000000" text-anchor="middle">0</text>

    <!-- Main Container -->
    <rect x="1015" y="1357" width="270" height="126" rx="8" ry="8" fill="#FFFFFF" stroke="#000000" stroke-width="2.8" />
    
    <!-- Dividing Lines -->
    <line x1="1015" y1="1420" x2="1285" y2="1420" stroke="#000000" stroke-width="2.0" />
    <line x1="1097" y1="1357" x2="1097" y2="1483" stroke="#000000" stroke-width="2.0" />
    <line x1="1203" y1="1357" x2="1203" y2="1483" stroke="#000000" stroke-width="2.0" />

    <!-- Top Row: ES | Activity ID | EF (ALL BOLD BLACK) -->
    <text x="1056" y="1397" class="font-main" font-size="20" font-weight="900" fill="#000000" text-anchor="middle">ES: 152</text>
    <text x="1150" y="1399" class="font-main" font-size="25" font-weight="900" fill="#000000" text-anchor="middle">A: X</text>
    <text x="1244" y="1397" class="font-main" font-size="20" font-weight="900" fill="#000000" text-anchor="middle">EF: 159</text>

    <!-- Bottom Row: LS | Duration | LF (ALL BOLD BLACK) -->
    <text x="1056" y="1463" class="font-main" font-size="20" font-weight="900" fill="#000000" text-anchor="middle">LS: 152</text>
    <text x="1150" y="1463" class="font-main" font-size="23" font-weight="900" fill="#000000" text-anchor="middle">D: 7</text>
    <text x="1244" y="1463" class="font-main" font-size="20" font-weight="900" fill="#000000" text-anchor="middle">LF: 159</text>
  </g>
  <!-- Terminal: Finish -->
  <g>
    <rect x="750" y="1387" width="140" height="66" rx="10" ry="10" fill="#FFFFFF" stroke="#000000" stroke-width="2.8" />
    <text x="820" y="1429" class="font-main" font-size="26" font-weight="900" fill="#000000" text-anchor="middle">Finish</text>
  </g>
  <!-- Legend -->
  <g transform="translate(80, 1530)">
    <rect x="0" y="-18" width="1120" height="54" rx="8" fill="#FFFFFF" stroke="#000000" stroke-width="2.4" />
    <text x="22" y="16" class="font-main" font-size="18" font-weight="900" fill="#000000">CPM LEGEND:</text>
    
    <!-- Red Critical Path -->
    <line x1="175" y1="10" x2="255" y2="10" stroke="#D32F2F" stroke-width="4.2" />
    <polygon points="251,6.5 261,10 251,13.5" fill="#D32F2F" />
    <text x="275" y="16" class="font-main" font-size="16.5" font-weight="900" fill="#D32F2F">Critical Path (Zero Float / Slack = 0)</text>
    
    <!-- Black Non-Critical Path -->
    <line x1="720" y1="10" x2="795" y2="10" stroke="#000000" stroke-width="2.4" stroke-dasharray="9,5" />
    <polygon points="791,6.5 801,10 791,13.5" fill="#000000" />
    <text x="815" y="16" class="font-main" font-size="16.5" font-weight="800" fill="#000000">Non-Critical Activity (Slack &gt; 0)</text>
  </g>
</svg>